<?xml version="1.0" encoding="UTF-8"?>
<svg id="_图层_1" data-name="图层 1" xmlns="http://www.w3.org/2000/svg" viewBox="0 0 358.88 414.39">
  <defs>
    <style>
      .cls-1 {
        fill: #3eb68d;
        stroke-width: 0px;
      }
    </style>
  </defs>
  <polygon class="cls-1" points="245.49 169.06 245.49 245.33 179.44 283.46 113.39 245.33 56.69 212.6 56.69 343.52 0 310.79 0 103.6 56.69 136.33 113.39 169.06 179.44 130.93 245.49 169.06"/>
  <polygon class="cls-1" points="236.13 381.66 179.44 414.39 113.39 376.26 113.39 310.8 179.44 348.93 236.13 381.66"/>
  <polygon class="cls-1" points="358.88 103.6 358.88 310.79 292.83 348.93 245.49 321.6 236.14 316.2 245.49 310.79 302.18 278.06 302.18 136.33 245.49 103.6 245.49 103.59 179.44 65.46 122.74 98.19 113.39 92.79 66.05 65.46 113.39 38.13 122.75 32.73 179.44 0 236.13 32.73 245.49 38.13 358.88 103.6"/>
</svg>